<svg version="1.1" id="Layer_1" xmlns="http://www.w3.org/2000/svg" xmlns:xlink="http://www.w3.org/1999/xlink" x="0px" y="0px"
	 width="100%" viewBox="0 0 475 135" enable-background="new 0 0 475 135" xml:space="preserve">
<path fill="#FCFCFD" opacity="1.000000" stroke="none" 
	d="
M365.000000,136.000000 
	C243.333374,136.000000 122.166740,136.000000 1.000081,136.000000 
	C1.000054,91.000046 1.000054,46.000099 1.000027,1.000112 
	C159.333237,1.000074 317.666473,1.000074 475.999756,1.000037 
	C475.999847,45.999889 475.999847,90.999779 475.999939,135.999832 
	C439.166656,136.000000 402.333344,136.000000 365.000000,136.000000 
M229.017426,80.513947 
	C231.966263,74.092186 236.387390,67.911987 237.490707,61.187420 
	C238.865128,52.810520 238.373016,43.856556 237.126846,35.381165 
	C235.024887,21.085363 225.944077,11.800444 211.741928,10.526929 
	C198.023560,9.296795 184.116928,9.974815 170.298279,10.176684 
	C166.383484,10.233874 163.994904,12.966236 163.876938,17.122097 
	C163.810822,19.451460 163.905426,21.784912 163.892746,24.116333 
	C163.723419,55.261108 163.586594,86.406151 163.337738,117.550308 
	C163.293808,123.046677 165.060669,125.007408 170.736923,124.939476 
	C176.386520,124.871864 182.040192,124.740669 187.685837,124.883598 
	C191.547318,124.981361 193.161057,123.357521 193.077301,119.545593 
	C192.934570,113.049622 192.853348,106.547852 192.985962,100.053421 
	C193.019012,98.434608 193.967728,96.834496 194.495560,95.225777 
	C195.737045,96.389030 197.436157,97.326004 198.142212,98.753998 
	C201.528366,105.602348 204.817841,112.510796 207.792480,119.545547 
	C209.499847,123.583336 212.100754,124.912582 216.356201,124.616272 
	C221.825623,124.235428 227.337280,124.293190 232.826065,124.400711 
	C239.677689,124.534920 241.161423,122.616768 238.227539,116.427582 
	C234.525864,108.618767 230.787018,100.807899 226.596222,93.257683 
	C223.883545,88.370483 223.367783,84.411430 229.017426,80.513947 
M415.257904,65.194016 
	C412.508759,49.474556 409.756836,33.755581 407.012421,18.035295 
	C406.336548,14.163951 405.010651,10.870790 400.308838,10.758224 
	C389.995148,10.511307 379.681122,10.258069 369.365753,10.111708 
	C365.447296,10.056110 362.686035,11.842443 361.635651,15.821763 
	C361.084961,17.907986 360.312286,19.953741 359.958466,22.071012 
	C356.287384,44.036816 352.697998,66.016258 349.049286,87.985817 
	C347.469788,97.496216 345.797668,106.991211 344.181580,116.495567 
	C343.175415,122.412842 344.253296,124.602280 348.881439,124.788635 
	C355.364594,125.049675 361.892639,125.178574 368.341705,124.643372 
	C370.055908,124.501122 372.329163,121.987556 372.967316,120.097359 
	C373.951385,117.182449 373.806610,113.870483 374.029999,110.719086 
	C374.270721,107.322990 375.886719,105.826546 379.403656,105.609344 
	C392.323853,104.811432 392.745178,105.082169 393.832672,117.909599 
	C393.860809,118.241417 393.904510,118.574738 393.896881,118.906342 
	C393.791901,123.469910 396.262817,125.008408 400.525635,124.908287 
	C405.845947,124.783302 411.172821,124.946281 416.496887,124.971298 
	C421.815094,124.996292 424.457947,122.032600 423.619690,116.714592 
	C420.954773,99.808495 418.207520,82.915375 415.257904,65.194016 
M30.555239,124.453888 
	C40.196968,124.603241 49.842712,124.631493 59.478786,124.951233 
	C64.563995,125.119980 67.142700,122.863167 68.110947,117.999748 
	C70.511383,105.942535 73.363129,93.968628 75.501373,81.867218 
	C79.286896,60.443020 82.694420,38.951820 86.221901,17.482378 
	C87.178345,11.661141 86.225334,10.697349 80.383949,10.705130 
	C74.393364,10.713109 68.396721,10.685717 62.413898,10.421201 
	C58.438217,10.245426 56.089909,11.415626 55.688194,15.767927 
	C54.617973,27.363155 53.383389,38.943569 52.162758,50.524456 
	C51.099392,60.613293 49.987255,70.697205 48.823997,80.774902 
	C48.728138,81.605354 48.074944,82.371483 47.009895,84.521965 
	C46.191658,80.840843 45.437679,78.528564 45.189659,76.163239 
	C43.090572,56.144485 41.014267,36.122665 39.107758,16.084957 
	C38.724911,12.061185 36.894062,10.530222 33.023758,10.628959 
	C27.529663,10.769122 22.029789,10.772038 16.533558,10.716810 
	C9.577588,10.646915 8.509300,11.699650 8.817224,18.782841 
	C8.875013,20.112186 8.955123,21.453991 9.190518,22.760206 
	C14.144238,50.248531 18.982441,77.759041 24.198248,105.197739 
	C25.414299,111.595001 27.929129,117.745377 30.555239,124.453888 
M138.665970,98.700195 
	C135.348984,98.441490 132.035934,98.095032 128.714035,97.945969 
	C124.428719,97.753685 122.368416,95.500908 122.205048,91.334953 
	C122.152863,90.004311 122.155296,88.670288 122.172844,87.338341 
	C122.261139,80.635780 124.057335,78.797638 130.885986,78.786453 
	C135.213562,78.779366 139.542236,79.018639 143.869247,79.178848 
	C148.457321,79.348740 150.677948,76.969940 150.789215,72.573143 
	C150.907120,67.913391 150.862000,63.248119 150.813980,58.586025 
	C150.777832,55.075333 149.164673,52.861984 145.439590,52.754753 
	C140.621033,52.616043 135.789963,52.336193 130.982162,52.539600 
	C124.478462,52.814747 122.490990,51.288147 122.098366,44.919132 
	C121.690193,38.297882 123.606834,36.154076 130.349426,36.055744 
	C135.504715,35.980568 140.663330,36.172527 145.820465,36.173538 
	C149.949326,36.174347 151.855927,33.826324 151.986008,29.902000 
	C152.134933,25.409266 152.090836,20.909513 152.275299,16.418755 
	C152.451035,12.139977 150.369980,10.414303 146.260208,10.387852 
	C131.455368,10.292565 116.651215,10.095521 101.846458,9.980048 
	C95.110924,9.927512 93.083916,11.732852 92.957520,18.407400 
	C92.780960,27.730188 92.917023,37.058422 92.843506,46.383728 
	C92.658470,69.854958 92.421867,93.325775 92.226997,116.796936 
	C92.179337,122.536545 94.435516,125.016754 99.775475,125.030525 
	C115.262817,125.070465 130.750320,125.077995 146.237701,125.058197 
	C151.809067,125.051071 153.615723,123.209335 153.728714,117.526962 
	C153.791595,114.365395 153.646469,111.197426 153.777252,108.039886 
	C154.122818,99.696678 152.076736,97.780502 143.541977,98.591103 
	C142.219498,98.716713 140.883636,98.701279 138.665970,98.700195 
M317.532562,121.566673 
	C317.691650,119.926941 317.992523,118.286667 317.986237,116.647560 
	C317.951752,107.666183 317.779053,98.685104 317.777588,89.703911 
	C317.776398,82.269463 319.498169,80.731781 327.075897,81.065063 
	C329.236725,81.160110 331.392212,81.419350 333.553040,81.464409 
	C337.693878,81.550789 340.219086,79.726830 340.371277,75.340111 
	C340.550079,70.186447 340.838623,65.031517 340.822937,59.877918 
	C340.811768,56.197754 338.565033,54.570042 334.975342,54.622658 
	C331.816406,54.668964 328.656586,54.709209 325.497620,54.688519 
	C318.220337,54.640854 317.048828,53.436634 317.213165,46.292217 
	C317.228485,45.626526 317.241577,44.960789 317.257385,44.295109 
	C317.403076,38.162609 318.434998,37.182240 324.742157,37.300667 
	C328.236511,37.366276 331.730988,37.462025 335.223145,37.601143 
	C342.218689,37.879833 343.656860,36.500881 343.657623,29.309673 
	C343.658081,24.984774 343.386841,20.648798 343.617004,16.338051 
	C343.850494,11.965362 341.901367,10.287252 337.745605,10.332628 
	C323.936920,10.483401 310.126129,10.477619 296.318939,10.703784 
	C290.741974,10.795135 288.935730,12.728842 288.829407,18.384333 
	C288.707367,24.873030 288.874573,31.366573 288.833405,37.857487 
	C288.664612,64.481438 288.384583,91.105301 288.422394,117.728806 
	C288.425507,119.935585 290.389160,123.970352 291.632416,124.046509 
	C299.509399,124.529091 307.441010,124.172188 315.351013,123.958359 
	C315.954346,123.942055 316.529816,122.892570 317.532562,121.566673 
M459.588074,25.516253 
	C459.724152,22.192551 459.992920,18.867392 459.956482,15.545581 
	C459.924377,12.620473 458.845276,10.209286 455.373413,10.212609 
	C448.890259,10.218816 442.406006,10.300146 435.924591,10.451789 
	C431.546814,10.554214 429.811829,12.918106 430.054291,17.262321 
	C430.396942,23.401701 430.609253,29.558565 430.581726,35.706631 
	C430.459595,62.981544 430.210571,90.255875 430.060028,117.530701 
	C430.029175,123.120476 431.513885,124.713120 437.088806,124.832840 
	C443.062073,124.961105 449.043457,124.826797 455.018829,124.694580 
	C458.442963,124.618813 460.201843,122.795105 460.021332,119.279594 
	C459.808136,115.127304 459.419495,110.974686 459.420410,106.822273 
	C459.426392,80.051689 459.518066,53.281128 459.588074,25.516253 
M255.755341,124.892197 
	C260.569763,124.790771 265.390930,124.481911 270.196899,124.638908 
	C276.623901,124.848869 277.957306,123.462570 277.849640,116.853409 
	C277.549164,98.410423 277.271393,79.964828 277.259155,61.520088 
	C277.249359,46.720924 277.675262,31.921846 277.827362,17.121904 
	C277.860779,13.871871 277.593994,10.335099 273.199219,10.247191 
	C266.555023,10.114289 259.900238,10.307422 253.254745,10.514745 
	C249.375900,10.635755 247.878204,12.791506 247.887451,16.716953 
	C247.966003,50.159142 247.999237,83.602104 247.812881,117.043549 
	C247.783478,122.318596 249.627151,124.873642 255.755341,124.892197 
z"/>
<path fill="#32366F" opacity="1.000000" stroke="none" 
	d="
M228.778076,80.784439 
	C223.367783,84.411430 223.883545,88.370483 226.596222,93.257683 
	C230.787018,100.807899 234.525864,108.618767 238.227539,116.427582 
	C241.161423,122.616768 239.677689,124.534920 232.826065,124.400711 
	C227.337280,124.293190 221.825623,124.235428 216.356201,124.616272 
	C212.100754,124.912582 209.499847,123.583336 207.792480,119.545547 
	C204.817841,112.510796 201.528366,105.602348 198.142212,98.753998 
	C197.436157,97.326004 195.737045,96.389030 194.495575,95.225784 
	C193.967728,96.834496 193.019012,98.434608 192.985962,100.053421 
	C192.853348,106.547852 192.934570,113.049622 193.077301,119.545593 
	C193.161057,123.357521 191.547318,124.981361 187.685837,124.883598 
	C182.040192,124.740669 176.386520,124.871864 170.736923,124.939476 
	C165.060669,125.007408 163.293808,123.046677 163.337738,117.550308 
	C163.586594,86.406151 163.723419,55.261108 163.892746,24.116333 
	C163.905426,21.784912 163.810822,19.451460 163.876938,17.122097 
	C163.994904,12.966236 166.383484,10.233874 170.298279,10.176684 
	C184.116928,9.974815 198.023560,9.296795 211.741928,10.526929 
	C225.944077,11.800444 235.024887,21.085363 237.126846,35.381165 
	C238.373016,43.856556 238.865128,52.810520 237.490707,61.187420 
	C236.387390,67.911987 231.966263,74.092186 228.778076,80.784439 
M192.350967,53.416393 
	C192.580048,55.384575 192.222809,57.730007 193.185501,59.226154 
	C194.409515,61.128464 196.559311,63.280624 198.575958,63.589729 
	C200.594635,63.899147 203.569229,62.647873 205.021576,61.067089 
	C208.815781,56.937305 208.731171,43.736229 204.711746,39.896122 
	C202.886154,38.151981 199.285812,37.066586 196.868881,37.554935 
	C195.212784,37.889557 193.665482,41.310188 193.052948,43.612881 
	C192.299011,46.447052 192.567657,49.553242 192.350967,53.416393 
z"/>
<path fill="#33376F" opacity="1.000000" stroke="none" 
	d="
M415.375000,65.605629 
	C418.207520,82.915375 420.954773,99.808495 423.619690,116.714592 
	C424.457947,122.032600 421.815094,124.996292 416.496887,124.971298 
	C411.172821,124.946281 405.845947,124.783302 400.525635,124.908287 
	C396.262817,125.008408 393.791901,123.469910 393.896881,118.906342 
	C393.904510,118.574738 393.860809,118.241417 393.832672,117.909599 
	C392.745178,105.082169 392.323853,104.811432 379.403656,105.609344 
	C375.886719,105.826546 374.270721,107.322990 374.029999,110.719086 
	C373.806610,113.870483 373.951385,117.182449 372.967316,120.097359 
	C372.329163,121.987556 370.055908,124.501122 368.341705,124.643372 
	C361.892639,125.178574 355.364594,125.049675 348.881439,124.788635 
	C344.253296,124.602280 343.175415,122.412842 344.181580,116.495567 
	C345.797668,106.991211 347.469788,97.496216 349.049286,87.985817 
	C352.697998,66.016258 356.287384,44.036816 359.958466,22.071012 
	C360.312286,19.953741 361.084961,17.907986 361.635651,15.821763 
	C362.686035,11.842443 365.447296,10.056110 369.365753,10.111708 
	C379.681122,10.258069 389.995148,10.511307 400.308838,10.758224 
	C405.010651,10.870790 406.336548,14.163951 407.012421,18.035295 
	C409.756836,33.755581 412.508759,49.474556 415.375000,65.605629 
M388.769653,66.754601 
	C387.537323,59.010353 387.315857,51.038315 383.428162,43.631237 
	C380.845886,53.726910 379.220734,63.799255 378.165131,73.930931 
	C378.041290,75.119598 381.173157,77.853691 382.584015,77.715157 
	C384.735535,77.503891 387.338104,75.828568 388.549286,73.986122 
	C389.545166,72.471184 388.796234,69.809242 388.769653,66.754601 
z"/>
<path fill="#33376F" opacity="1.000000" stroke="none" 
	d="
M30.200809,124.231613 
	C27.929129,117.745377 25.414299,111.595001 24.198248,105.197739 
	C18.982441,77.759041 14.144238,50.248531 9.190518,22.760206 
	C8.955123,21.453991 8.875013,20.112186 8.817224,18.782841 
	C8.509300,11.699650 9.577588,10.646915 16.533558,10.716810 
	C22.029789,10.772038 27.529663,10.769122 33.023758,10.628959 
	C36.894062,10.530222 38.724911,12.061185 39.107758,16.084957 
	C41.014267,36.122665 43.090572,56.144485 45.189659,76.163239 
	C45.437679,78.528564 46.191658,80.840843 47.009895,84.521965 
	C48.074944,82.371483 48.728138,81.605354 48.823997,80.774902 
	C49.987255,70.697205 51.099392,60.613293 52.162758,50.524456 
	C53.383389,38.943569 54.617973,27.363155 55.688194,15.767927 
	C56.089909,11.415626 58.438217,10.245426 62.413898,10.421201 
	C68.396721,10.685717 74.393364,10.713109 80.383949,10.705130 
	C86.225334,10.697349 87.178345,11.661141 86.221901,17.482378 
	C82.694420,38.951820 79.286896,60.443020 75.501373,81.867218 
	C73.363129,93.968628 70.511383,105.942535 68.110947,117.999748 
	C67.142700,122.863167 64.563995,125.119980 59.478786,124.951233 
	C49.842712,124.631493 40.196968,124.603241 30.200809,124.231613 
z"/>
<path fill="#33376F" opacity="1.000000" stroke="none" 
	d="
M139.109955,98.725632 
	C140.883636,98.701279 142.219498,98.716713 143.541977,98.591103 
	C152.076736,97.780502 154.122818,99.696678 153.777252,108.039886 
	C153.646469,111.197426 153.791595,114.365395 153.728714,117.526962 
	C153.615723,123.209335 151.809067,125.051071 146.237701,125.058197 
	C130.750320,125.077995 115.262817,125.070465 99.775475,125.030525 
	C94.435516,125.016754 92.179337,122.536545 92.226997,116.796936 
	C92.421867,93.325775 92.658470,69.854958 92.843506,46.383728 
	C92.917023,37.058422 92.780960,27.730188 92.957520,18.407400 
	C93.083916,11.732852 95.110924,9.927512 101.846458,9.980048 
	C116.651215,10.095521 131.455368,10.292565 146.260208,10.387852 
	C150.369980,10.414303 152.451035,12.139977 152.275299,16.418755 
	C152.090836,20.909513 152.134933,25.409266 151.986008,29.902000 
	C151.855927,33.826324 149.949326,36.174347 145.820465,36.173538 
	C140.663330,36.172527 135.504715,35.980568 130.349426,36.055744 
	C123.606834,36.154076 121.690193,38.297882 122.098366,44.919132 
	C122.490990,51.288147 124.478462,52.814747 130.982162,52.539600 
	C135.789963,52.336193 140.621033,52.616043 145.439590,52.754753 
	C149.164673,52.861984 150.777832,55.075333 150.813980,58.586025 
	C150.862000,63.248119 150.907120,67.913391 150.789215,72.573143 
	C150.677948,76.969940 148.457321,79.348740 143.869247,79.178848 
	C139.542236,79.018639 135.213562,78.779366 130.885986,78.786453 
	C124.057335,78.797638 122.261139,80.635780 122.172844,87.338341 
	C122.155296,88.670288 122.152863,90.004311 122.205048,91.334953 
	C122.368416,95.500908 124.428719,97.753685 128.714035,97.945969 
	C132.035934,98.095032 135.348984,98.441490 139.109955,98.725632 
z"/>
<path fill="#333770" opacity="1.000000" stroke="none" 
	d="
M317.325378,121.945000 
	C316.529816,122.892570 315.954346,123.942055 315.351013,123.958359 
	C307.441010,124.172188 299.509399,124.529091 291.632416,124.046509 
	C290.389160,123.970352 288.425507,119.935585 288.422394,117.728806 
	C288.384583,91.105301 288.664612,64.481438 288.833405,37.857487 
	C288.874573,31.366573 288.707367,24.873030 288.829407,18.384333 
	C288.935730,12.728842 290.741974,10.795135 296.318939,10.703784 
	C310.126129,10.477619 323.936920,10.483401 337.745605,10.332628 
	C341.901367,10.287252 343.850494,11.965362 343.617004,16.338051 
	C343.386841,20.648798 343.658081,24.984774 343.657623,29.309673 
	C343.656860,36.500881 342.218689,37.879833 335.223145,37.601143 
	C331.730988,37.462025 328.236511,37.366276 324.742157,37.300667 
	C318.434998,37.182240 317.403076,38.162609 317.257385,44.295109 
	C317.241577,44.960789 317.228485,45.626526 317.213165,46.292217 
	C317.048828,53.436634 318.220337,54.640854 325.497620,54.688519 
	C328.656586,54.709209 331.816406,54.668964 334.975342,54.622658 
	C338.565033,54.570042 340.811768,56.197754 340.822937,59.877918 
	C340.838623,65.031517 340.550079,70.186447 340.371277,75.340111 
	C340.219086,79.726830 337.693878,81.550789 333.553040,81.464409 
	C331.392212,81.419350 329.236725,81.160110 327.075897,81.065063 
	C319.498169,80.731781 317.776398,82.269463 317.777588,89.703911 
	C317.779053,98.685104 317.951752,107.666183 317.986237,116.647560 
	C317.992523,118.286667 317.691650,119.926941 317.325378,121.945000 
z"/>
<path fill="#343870" opacity="1.000000" stroke="none" 
	d="
M459.584839,26.013405 
	C459.518066,53.281128 459.426392,80.051689 459.420410,106.822273 
	C459.419495,110.974686 459.808136,115.127304 460.021332,119.279594 
	C460.201843,122.795105 458.442963,124.618813 455.018829,124.694580 
	C449.043457,124.826797 443.062073,124.961105 437.088806,124.832840 
	C431.513885,124.713120 430.029175,123.120476 430.060028,117.530701 
	C430.210571,90.255875 430.459595,62.981544 430.581726,35.706631 
	C430.609253,29.558565 430.396942,23.401701 430.054291,17.262321 
	C429.811829,12.918106 431.546814,10.554214 435.924591,10.451789 
	C442.406006,10.300146 448.890259,10.218816 455.373413,10.212609 
	C458.845276,10.209286 459.924377,12.620473 459.956482,15.545581 
	C459.992920,18.867392 459.724152,22.192551 459.584839,26.013405 
z"/>
<path fill="#33376F" opacity="1.000000" stroke="none" 
	d="
M255.318466,124.882530 
	C249.627151,124.873642 247.783478,122.318596 247.812881,117.043549 
	C247.999237,83.602104 247.966003,50.159142 247.887451,16.716953 
	C247.878204,12.791506 249.375900,10.635755 253.254745,10.514745 
	C259.900238,10.307422 266.555023,10.114289 273.199219,10.247191 
	C277.593994,10.335099 277.860779,13.871871 277.827362,17.121904 
	C277.675262,31.921846 277.249359,46.720924 277.259155,61.520088 
	C277.271393,79.964828 277.549164,98.410423 277.849640,116.853409 
	C277.957306,123.462570 276.623901,124.848869 270.196899,124.638908 
	C265.390930,124.481911 260.569763,124.790771 255.318466,124.882530 
z"/>
<path fill="#F9FAFB" opacity="1.000000" stroke="none" 
	d="
M192.372650,52.979130 
	C192.567657,49.553242 192.299011,46.447052 193.052948,43.612881 
	C193.665482,41.310188 195.212784,37.889557 196.868881,37.554935 
	C199.285812,37.066586 202.886154,38.151981 204.711746,39.896122 
	C208.731171,43.736229 208.815781,56.937305 205.021576,61.067089 
	C203.569229,62.647873 200.594635,63.899147 198.575958,63.589729 
	C196.559311,63.280624 194.409515,61.128464 193.185501,59.226154 
	C192.222809,57.730007 192.580048,55.384575 192.372650,52.979130 
z"/>
<path fill="#F8F8FA" opacity="1.000000" stroke="none" 
	d="
M388.795135,67.205139 
	C388.796234,69.809242 389.545166,72.471184 388.549286,73.986122 
	C387.338104,75.828568 384.735535,77.503891 382.584015,77.715157 
	C381.173157,77.853691 378.041290,75.119598 378.165131,73.930931 
	C379.220734,63.799255 380.845886,53.726910 383.428162,43.631237 
	C387.315857,51.038315 387.537323,59.010353 388.795135,67.205139 
z"/>
</svg>